<svg xmlns="http://www.w3.org/2000/svg" viewBox="0 0 64 64">
  <defs>
    <linearGradient id="g" x1="0" y1="0" x2="1" y2="1">
      <stop offset="0" stop-color="#3b7ff5"/>
      <stop offset="1" stop-color="#1a4db8"/>
    </linearGradient>
  </defs>
  <rect width="64" height="64" rx="14" fill="url(#g)"/>
  <!-- Taxi icon -->
  <path fill="#ffffff" d="M14 38 L14 28 C14 25.5 16 23.5 18.5 23.5 L22 23.5 L24 18 L40 18 L42 23.5 L45.5 23.5 C48 23.5 50 25.5 50 28 L50 38 L44.5 38 C44 40 42 41.5 40 41.5 C38 41.5 36 40 35.5 38 L28.5 38 C28 40 26 41.5 24 41.5 C22 41.5 20 40 19.5 38 Z" opacity=".95"/>
  <!-- Wheels -->
  <circle cx="24" cy="38.5" r="3" fill="#0a0d12"/>
  <circle cx="40" cy="38.5" r="3" fill="#0a0d12"/>
  <!-- Windows -->
  <path fill="#1a4db8" d="M26 22.5 L29 19.5 L35 19.5 L38 22.5 Z"/>
  <!-- Checker stripe -->
  <rect x="14" y="31.5" width="4" height="3" fill="#ffd93d"/>
  <rect x="22" y="31.5" width="4" height="3" fill="#0a0d12"/>
  <rect x="30" y="31.5" width="4" height="3" fill="#ffd93d"/>
  <rect x="38" y="31.5" width="4" height="3" fill="#0a0d12"/>
  <rect x="46" y="31.5" width="4" height="3" fill="#ffd93d"/>
</svg>
